# xmcd
#
# Track frame offsets:
#	150
#	15602
#	27670
#	40352
#	57107
#	71065
#	84277
#	97130
#	113420
#	124932
#	141115
#	155930
#	171475
#	185117
#	195315
#	211070
#
# Disc length: 2994
#
# Revision: 2
# Processed by: cddbd v1.5.1PL0 Copyright (c) Steve Scherf et al.
# Submitted via: CDex 1.40Beta9
# Normalized: r0:TDELIM( - ),TSWAP
#
DISCID=e70bb010
DTITLE=Country - Classics
DYEAR=1900
DGENRE=Country
TTITLE0=Bobby Bare - Goodnight Irene
TTITLE1=Charly McClain and Ray Conniff - Oh! Lonesome Me
TTITLE2=Johnny Cash - That Silver Haired Daddy of Mine
TTITLE3=Rick Scaggs - Sweet Temptation
TTITLE4=Lacy J. Dalton - Tennessee Waltz
TTITLE5=Slim Whitman - Scarlet Ribbons
TTITLE6=Marty Robbins - Tumbling Tumbleweeds
TTITLE7=David Allan Coe - Gotta Travel On
TTITLE8=Moe Randy - Jambalaya (On The Bayou)
TTITLE9=Merle Haggard - Nobody's Darlin' But Mine
TTITLE10=Janie Frickie - Please Help Me, I'm Falling (In Love With You)
TTITLE11=Mickey Gilley - I Really Don't Want To Know
TTITLE12=Willie Nelson - Mom and Dad's Waltz
TTITLE13=Ray Price - Born To Lose
TTITLE14=Marty Robbins - I'm Just Here To Get My Baby Out Of Jail
TTITLE15=Johnny Paycheck - Roll In My Sweet Baby's Arms
EXTD=ID3G: 2
EXTT0=
EXTT1=
EXTT2=
EXTT3=
EXTT4=
EXTT5=
EXTT6=
EXTT7=
EXTT8=
EXTT9=
EXTT10=
EXTT11=
EXTT12=
EXTT13=
EXTT14=
EXTT15=
PLAYORDER=
